<?xml version="1.0" encoding="utf-8" ?>
<svg xmlns="http://www.w3.org/2000/svg" xmlns:xlink="http://www.w3.org/1999/xlink" width="1000" height="1104">
	<path d="M70.7729 130.835C88.5901 139.266 106.053 149.127 123.508 158.342L216.601 207.922C229.779 215.055 243.191 221.773 256.441 228.777C263.994 232.769 272.151 236.754 279.095 241.733C286.632 247.137 293.33 254.568 299.983 261.03L340.081 300.392Q377.416 336.459 414.239 373.048C427.554 386.1 441.435 398.736 454.195 412.332C445.449 422.64 435.446 432.65 425.527 441.832C433.665 439.804 442.131 438.645 450.394 437.2C458.793 435.732 467.286 433.921 475.769 433.078C481.464 438.043 486.741 443.824 492.12 449.146Q508.395 465.316 524.833 481.32L646.803 600.811Q599.785 607.394 552.638 612.976C544.315 604.438 535.588 596.264 527.118 587.867Q493.521 554.057 459.267 520.914L352.562 414.871Q309.9 372.105 266.517 330.07C246.912 310.717 227.641 290.909 207.092 272.546C203.966 269.525 200.778 266.006 197.126 263.664L196.621 263.936C198.024 266.076 200.175 267.877 201.88 269.804C205.929 274.379 209.861 279.063 213.86 283.683C237.83 311.371 263.623 337.441 288.277 364.514L535.625 634.124C530.539 662.529 528.1 691.586 523.854 720.152L425.816 613.653C431.958 604.213 436.648 593.25 441.746 583.196C429.248 585.951 416.375 586.911 403.818 589.436C397.853 581.629 390.438 574.534 383.791 567.28L343.396 523.369L271.998 445.512Q246.064 417.818 220.633 389.661Q208.037 375.685 195.091 362.033C190.233 356.844 184.727 351.674 180.606 345.892C176.195 339.702 173.017 332.328 169.658 325.524Q163.078 312.094 156.287 298.77L99.6364 186.558L81.2112 150.151C78.0106 143.929 75.0119 137.297 71.1768 131.444L70.7729 130.835Z"/>
	<path d="M614.184 15.4772C614.884 22.1113 614.647 29.0681 614.862 35.7478L616.294 72.2449Q618.272 121.612 620.853 170.952C621.772 189.567 622.181 208.307 623.828 226.869C624.98 218.535 625.091 209.912 625.487 201.512L627.235 157.548L630.962 63.0889C631.559 47.123 631.733 31.1612 632.56 15.2016C635.641 37.7342 639.849 60.0636 643.697 82.4732Q651.057 127.848 659.058 173.115Q679.962 300.605 702.254 427.86C722.49 416.313 742.262 403.795 762.077 391.538L824.674 352.879L786.357 400.278C779.911 408.274 773.658 417.122 766.547 424.504C765.17 425.934 763.684 426.96 761.979 427.962C748.995 435.133 736.297 442.813 723.392 450.126C707.974 458.863 692.342 467.285 677.084 476.293Q678.082 466.281 678.87 456.25Q661.183 473.837 642.713 490.6C642.202 480.133 640.927 469.664 639.926 459.234L635.217 409.799C631.55 371.893 628.437 333.833 623.564 296.063C619.998 338.88 615.513 381.693 611.282 424.453C609.101 446.503 606.415 468.659 605.17 490.778C585.721 470.004 565.332 450.003 545.414 429.676C547.484 420.129 548.81 410.3 550.42 400.664L559.809 344.683L595.161 132.354L607.852 54.8462C609.978 41.7563 611.64 28.4845 614.184 15.4772Z"/>
	<path d="M714.243 561.319C714.717 561.261 715.193 561.212 715.67 561.175C720.443 560.804 724.278 561.315 728.047 564.598C733.568 569.407 745.09 579.705 745.365 587.368C745.457 589.946 744.876 592.264 743.488 594.438C738.134 602.82 725.865 613.868 718.679 621.199L675.683 665.238L681.723 691.479C668.384 704.489 655.003 717.625 641.943 730.91C632.272 740.748 622.926 750.939 612.927 760.447C604.509 758.4 595.897 756.889 587.405 755.155C565.679 775.896 544.896 797.841 523.809 819.246C521.325 821.376 518.936 822.846 515.589 823.072C510.681 823.404 506.458 821.188 502.868 818.029C496.859 812.742 487.285 804.589 486.925 796.158C486.815 793.585 487.42 791.008 488.867 788.861C492.982 782.752 499.426 777.408 504.613 772.151C516.227 760.38 528.203 748.767 539.192 736.407Q546.633 683.138 552.681 629.692C587.768 625.643 622.727 620.405 657.823 616.503L691.117 582.44C696.972 576.393 702.615 569.431 709.078 564.082C710.665 562.768 712.326 562.036 714.243 561.319ZM612.396 712C619.372 710.411 625.234 707.273 629.219 701.085C632.902 695.364 633.866 688.22 632.332 681.638C630.868 675.358 627.141 669.634 621.648 666.16C616.312 662.786 610.37 661.994 604.218 662.6C596.357 664.705 589.827 668.171 585.735 675.573Q585.437 676.113 585.167 676.667Q584.897 677.22 584.656 677.788Q584.414 678.354 584.202 678.933Q583.99 679.511 583.807 680.1Q583.624 680.688 583.472 681.286Q583.319 681.883 583.197 682.487Q583.075 683.091 582.983 683.7Q582.892 684.309 582.832 684.923Q582.771 685.536 582.742 686.152Q582.713 686.767 582.716 687.384Q582.718 688 582.751 688.615Q582.785 689.23 582.849 689.843Q582.914 690.456 583.01 691.065Q583.105 691.674 583.232 692.277Q583.358 692.88 583.515 693.476Q583.672 694.072 583.859 694.659Q584.059 695.27 584.289 695.87Q584.519 696.471 584.778 697.059Q585.037 697.648 585.325 698.223Q585.613 698.798 585.928 699.358Q586.244 699.918 586.587 700.462Q586.93 701.005 587.299 701.532Q587.669 702.058 588.064 702.565Q588.458 703.073 588.878 703.56Q589.297 704.048 589.74 704.514Q590.183 704.98 590.648 705.424Q591.113 705.868 591.6 706.288Q592.086 706.708 592.593 707.104Q593.099 707.5 593.625 707.87Q594.151 708.241 594.694 708.585Q595.237 708.929 595.796 709.246Q596.356 709.563 596.93 709.852C602.092 712.417 606.775 712.597 612.396 712Z"/>
	<path d="M880.122 906.359C887.987 905.84 895.921 906.41 903.489 908.7C918.73 913.313 931.268 924.322 938.643 938.343Q939.379 939.713 940.044 941.119Q940.71 942.525 941.305 943.962Q941.899 945.4 942.42 946.866Q942.941 948.331 943.388 949.821Q943.835 951.311 944.206 952.822Q944.577 954.332 944.872 955.859Q945.166 957.387 945.384 958.927Q945.601 960.467 945.741 962.016Q945.88 963.565 945.942 965.12Q946.004 966.674 945.987 968.229Q945.97 969.784 945.875 971.337Q945.78 972.89 945.607 974.435Q945.434 975.981 945.183 977.516Q944.933 979.052 944.605 980.572Q944.278 982.093 943.874 983.595Q943.471 985.097 942.992 986.577Q942.528 988.024 941.993 989.445Q941.458 990.867 940.854 992.261Q940.249 993.655 939.577 995.017Q938.904 996.379 938.166 997.707Q937.427 999.034 936.623 1000.32Q935.82 1001.61 934.954 1002.86Q934.088 1004.11 933.161 1005.31Q932.235 1006.52 931.25 1007.67Q930.265 1008.83 929.224 1009.94Q928.184 1011.04 927.09 1012.1Q925.995 1013.15 924.851 1014.15Q923.706 1015.15 922.514 1016.09Q921.321 1017.03 920.083 1017.91Q918.846 1018.79 917.566 1019.61Q916.287 1020.43 914.968 1021.19Q913.65 1021.94 912.296 1022.63C907.346 1025.15 896.399 1030.08 890.834 1028.25C890.03 1028.64 889.293 1028.96 888.409 1029.1C874.328 1031.39 857.074 1024.43 846.334 1015.69Q845.154 1014.71 844.024 1013.68Q842.893 1012.64 841.815 1011.56Q840.737 1010.47 839.713 1009.33Q838.689 1008.19 837.722 1007Q836.755 1005.81 835.848 1004.58Q834.94 1003.34 834.094 1002.07Q833.249 1000.79 832.466 999.471Q831.684 998.154 830.967 996.8Q830.25 995.446 829.6 994.058Q828.951 992.671 828.37 991.253Q827.789 989.836 827.278 988.391Q826.767 986.947 826.328 985.479Q825.888 984.012 825.521 982.524Q825.154 981.037 824.86 979.533Q824.566 978.03 824.346 976.513Q824.126 974.997 823.981 973.472Q823.85 971.962 823.792 970.447Q823.735 968.933 823.752 967.417Q823.768 965.901 823.858 964.388Q823.949 962.875 824.113 961.369Q824.277 959.862 824.514 958.365Q824.751 956.868 825.061 955.384Q825.371 953.9 825.753 952.433Q826.135 950.967 826.588 949.52Q827.041 948.074 827.564 946.651Q828.087 945.229 828.679 943.833Q829.27 942.438 829.93 941.073Q830.589 939.708 831.313 938.377Q832.038 937.045 832.827 935.751Q833.616 934.457 834.467 933.202Q835.318 931.948 836.229 930.737Q837.14 929.525 838.109 928.36C848.701 915.614 863.671 907.97 880.122 906.359ZM888.8 988.924C894.927 987.283 899.976 984.585 903.332 978.932Q903.603 978.469 903.85 977.994Q904.098 977.519 904.322 977.031Q904.546 976.544 904.746 976.047Q904.945 975.55 905.12 975.043Q905.295 974.536 905.445 974.021Q905.594 973.507 905.719 972.985Q905.843 972.464 905.941 971.937Q906.039 971.41 906.111 970.879Q906.184 970.348 906.229 969.814Q906.275 969.279 906.295 968.744Q906.314 968.208 906.308 967.672Q906.301 967.136 906.267 966.601Q906.234 966.066 906.174 965.533Q906.115 965.001 906.029 964.472Q905.943 963.942 905.831 963.418Q905.719 962.894 905.582 962.376Q905.446 961.861 905.285 961.353Q905.124 960.845 904.938 960.346Q904.752 959.846 904.542 959.357Q904.331 958.867 904.097 958.389Q903.862 957.91 903.604 957.444Q903.346 956.978 903.065 956.525Q902.784 956.072 902.482 955.634Q902.179 955.196 901.854 954.773Q901.53 954.35 901.185 953.944Q900.841 953.537 900.476 953.149Q900.112 952.76 899.728 952.39Q899.345 952.02 898.944 951.67Q898.542 951.319 898.124 950.989Q897.706 950.658 897.272 950.349Q896.838 950.04 896.389 949.753Q895.94 949.466 895.478 949.201C890.838 946.594 886.035 946.178 880.834 946.618C874.078 948.841 868.502 952.062 865.263 958.763Q865.032 959.24 864.826 959.728Q864.62 960.216 864.438 960.714Q864.257 961.212 864.101 961.718Q863.945 962.225 863.814 962.738Q863.684 963.252 863.58 963.771Q863.476 964.291 863.398 964.815Q863.32 965.339 863.269 965.867Q863.218 966.394 863.193 966.923Q863.169 967.453 863.171 967.983Q863.174 968.512 863.203 969.042Q863.232 969.571 863.287 970.098Q863.343 970.625 863.425 971.148Q863.508 971.671 863.616 972.19Q863.725 972.709 863.86 973.221Q863.994 973.734 864.155 974.239Q864.315 974.744 864.501 975.24Q864.681 975.738 864.885 976.227Q865.09 976.715 865.318 977.193Q865.547 977.67 865.8 978.136Q866.052 978.601 866.328 979.054Q866.603 979.506 866.901 979.944Q867.199 980.382 867.519 980.804Q867.838 981.226 868.179 981.632Q868.519 982.038 868.879 982.426Q869.24 982.814 869.619 983.183Q869.998 983.553 870.396 983.903Q870.793 984.253 871.207 984.583Q871.622 984.912 872.053 985.221Q872.483 985.529 872.929 985.816Q873.374 986.102 873.833 986.366Q874.293 986.629 874.765 986.869Q875.237 987.11 875.72 987.326Q876.486 987.659 877.275 987.935Q878.063 988.212 878.869 988.431Q879.675 988.651 880.495 988.811Q881.315 988.972 882.144 989.073Q882.973 989.175 883.808 989.216Q884.642 989.257 885.477 989.239Q886.313 989.22 887.144 989.141Q887.976 989.062 888.8 988.924Z"/>
	<path d="M805.319 830.663C810.248 833.951 824.058 851.238 829.109 856.994Q845.457 875.584 862.083 893.925C857.168 895.618 852.347 897.564 847.773 900.05C829.377 910.047 817.39 925.826 811.588 945.723C806.312 941.443 801.548 936.526 796.688 931.787C773.536 909.31 750.265 886.697 726.564 864.813C752.441 852.805 779.066 841.859 805.319 830.663Z"/>
	<path d="M746.09 764.404C752.122 769.09 757.401 776.166 762.545 781.883Q779.294 800.363 795.66 819.183Q766.779 831.4 738.049 843.97C733.357 846.008 719.485 852.994 715.61 853.451C714.803 853.546 714.361 852.9 713.757 852.432Q687.524 826.907 660.815 801.879C689.009 788.892 717.98 777.581 746.09 764.404Z"/>
	<path d="M846.75 123.443L847.071 123.71L832.379 209.561C830.47 220.416 828.823 231.355 826.517 242.133C819.732 247.697 812.225 252.653 805.249 258.036C791.921 268.32 778.862 278.963 765.462 289.151L764.975 288.688C768.119 273.388 770.665 257.826 773.242 242.415C774.572 234.467 775.178 225.135 777.943 217.596C780.317 211.121 786.714 205.129 790.754 199.54Q818.381 161.219 846.75 123.443Z"/>
	<path d="M690.301 702.236C693.417 703.817 732.337 747.545 736.244 752.927C725.716 758.024 714.774 762.258 704.036 766.889C690.93 772.541 677.966 778.564 664.923 784.364C659.808 786.593 654.649 788.726 649.508 790.894C641.239 783.732 633.567 775.687 625.579 768.196C646.865 745.987 668.662 724.108 690.301 702.236Z"/>
	<path d="M425.08 200.345C429.76 203.528 450.243 229.686 455.884 236.458C467.133 249.965 478.913 263.088 489.824 276.867C491.547 298.812 494.889 320.627 496.946 342.549C493.247 339.51 453.63 295.04 452.483 292.714C449.433 286.529 445.767 269.823 443.592 262.344C437.573 241.636 430.959 221.085 425.08 200.345Z"/>
	<path d="M798.023 466.362C805.96 465.429 816.851 467.82 824.968 468.806C843.708 471.081 862.611 473.886 881.435 475.212C859.663 481.067 838.227 488.54 816.576 494.886C812.294 496.249 807.303 498.32 802.821 498.541C795.224 498.916 786.402 496.242 778.9 494.863L736.356 486.984C757.147 481.397 777.719 473.524 798.023 466.362Z"/>
</svg>
