<?xml version="1.0" encoding="utf-8" ?>
<svg xmlns="http://www.w3.org/2000/svg" xmlns:xlink="http://www.w3.org/1999/xlink" width="2048" height="2048">
	<path fill="#EECC73" d="M65.9911 63.9617L1983.05 64.0929L1983.1 1353.7L1983.07 1770.43L1983.13 1904.58C1983.14 1930.95 1984.02 1957.68 1982.45 1983.99L66.071 1983.87L65.9911 63.9617ZM77.8706 199.668C110.754 203.951 138.622 219.803 158.809 246.211C171.346 262.611 179.891 281.247 190.485 298.832C160.812 340.067 124.708 387.498 116.423 438.719C111.33 470.204 115.994 504.51 116.034 536.429L115.502 758.794L114.887 1370.14L114.984 1520.38C114.842 1547.37 111.41 1576.1 115.718 1602.76C123.962 1653.79 160.954 1709.25 190.529 1750.71C159.007 1807.84 140.299 1828.08 78.0519 1851.61C77.8502 1891.65 76.8259 1931.92 77.494 1971.94L199.689 1972.02C202.951 1938.02 222.198 1907.71 248.317 1886.36C262.473 1874.78 278.366 1865.1 294.546 1856.62C337.485 1887.2 386.148 1920.67 438.57 1931.76C464.006 1937.14 491.285 1935.07 517.16 1934.85L602.801 1934.31L947.894 1934.1C971.781 1934.1 995.729 1933.8 1019.61 1934.27C1033.73 1934.55 1050.43 1937.59 1064.17 1935.21C1071.62 1933.91 1080.55 1930.89 1088.03 1931.09C1095.74 1931.29 1103.19 1934.38 1110.91 1934.42C1141.44 1934.56 1172.05 1933.84 1202.61 1933.89L1498.75 1934.1C1534.85 1934.33 1590.73 1939.51 1623.99 1930.2C1670.18 1917.28 1710.54 1886.79 1749.38 1859.81C1789.95 1878.72 1827.57 1901.37 1843.46 1945.66Q1845.7 1952.06 1847.37 1958.64Q1849.03 1965.22 1850.1 1971.92L1970.59 1972.02C1973.06 1932.29 1971.11 1891.45 1970.81 1851.62C1915.22 1833.31 1890.11 1814.82 1863.4 1761.98Q1861.08 1757.47 1858.96 1752.87C1888.15 1708.67 1923.44 1661.19 1931.94 1607.63C1937.68 1571.5 1932.24 1533.74 1932.05 1497.38L1932.03 1262.7L1932 664.796L1932.19 519.906C1932.31 491.797 1936 461.616 1930.28 433.975C1920.14 384.904 1888.88 338.028 1855.3 301.438C1877.67 258.912 1901.74 219.667 1950.28 204.603C1956.99 202.519 1963.94 201.065 1970.8 199.539Q1970.36 137.773 1971.1 76.0121L1850.89 76.1262C1834.65 134.12 1814.03 153.997 1762.55 182.945L1749.85 190.099C1709.96 162.338 1655.75 121.83 1607.48 113.659C1568.86 107.123 1517.78 112.897 1477.49 112.972L1169.2 113.217L655 113.294L529.93 113.139C502.228 112.9 473.187 109.832 445.809 114.583C399.572 122.607 333.126 160.199 297.787 191.388C249.277 164.315 216.15 141.568 200.211 85.4928Q198.876 80.7714 197.67 76.0156C157.86 76.0103 117.719 75.0339 77.94 76.0599L77.8706 199.668ZM1942.26 1590.04C1945 1582.64 1947.13 1575.22 1949.14 1567.59C1957.77 1526.51 1964.53 1486.23 1966.81 1444.24C1969.84 1388.22 1968.08 1331.67 1967.97 1275.57L1967.88 1010.61L1967.87 748.647C1967.91 701.668 1970.03 654.221 1967.47 607.303C1966 580.339 1954.87 484.637 1944.21 464.684L1942.24 463.435C1940.64 529.226 1941.96 595.041 1942.03 660.842L1942.18 1014.28L1941.99 1353.85C1941.77 1432.5 1940.49 1511.41 1942.26 1590.04ZM98.3955 1566.26C99.8463 1570.94 101.074 1575.66 103.559 1579.91L105.073 1580.43C106.698 1578.09 105.126 1491.28 105.152 1481.68L105.797 1197.56L106.515 674.638L106.818 528.429C106.936 509.874 110.535 488.794 107.632 470.508C107.415 469.146 107.011 467.967 106.54 466.677L104.468 465.32C93.9416 503.078 85.1077 541.071 82.3809 580.259C78.6979 633.188 79.9702 686.412 80.1018 739.437L80.1334 948.904L80.1242 1256.23Q80.033 1320.93 80.6818 1385.62C81.4019 1445.38 81.9548 1508.3 98.3955 1566.26ZM468.068 104.993C510.123 103.358 552.229 103.951 594.309 103.963L780.991 104.014L1432.26 103.853C1458.38 103.59 1484.55 103.028 1510.67 103.364C1535.9 103.688 1561.59 105.145 1586.77 103.583C1548.41 94.4119 1510.18 86.9117 1470.89 83.0385C1424.55 78.4706 1377.97 79.6455 1331.48 79.6863L1150.25 79.7473L623.788 79.4898C574.441 80.6887 513.671 84.7765 468.068 104.993ZM502.067 1951.8C532.859 1957.85 563.984 1966.14 595.421 1967.77C614.489 1968.76 633.695 1968.31 652.787 1968.29L742.458 1968.2L1011.35 1968.18L1288.54 1968.03C1342.39 1967.95 1396.5 1969.54 1450.27 1966.35C1476 1964.82 1563.43 1955.92 1582.58 1943.11L1582.09 1942.13L1582.28 1943.25C1579.62 1941.06 1576.73 1942.16 1573.37 1942.4C1540.08 1945.15 1506.48 1944.07 1473.09 1944.05L1319.52 1943.97L748.283 1943.99L571.968 1943.95C538.012 1943.84 503.781 1942.06 469.886 1944.35Q485.915 1948.34 502.067 1951.8ZM1554.84 1970.6C1584.22 1973.13 1614.79 1971.83 1644.29 1971.45C1695.67 1970.79 1747.45 1969.62 1798.79 1971.91C1788.93 1953.15 1776.88 1937.98 1759.53 1925.56C1757.13 1924.15 1755.46 1922.54 1752.5 1923.11C1745.99 1924.36 1737.05 1933.74 1731.4 1937.62C1709.02 1952.99 1681.37 1966.78 1653.89 1968.82C1686.83 1949.06 1721.98 1933.08 1753.75 1911.32C1770.29 1921.72 1786.72 1932.11 1796.75 1949.49C1801 1956.84 1804.34 1964.84 1809.26 1971.78C1814.45 1972.17 1819.56 1972.8 1824.73 1971.96L1825.63 1971.02C1815.38 1935.46 1787.12 1907.07 1755.45 1889.59Q1752.92 1888.2 1750.36 1886.87C1704.08 1918.5 1657.77 1946.59 1602.94 1960.78C1587.14 1964.87 1570.86 1967.5 1554.84 1970.6ZM1754.13 161.629C1777.9 142.335 1799.17 128.873 1814.98 101.607C1818.21 96.0423 1821.85 89.6322 1822.48 83.1322C1822.78 79.9375 1822.11 78.2235 1820.21 75.721C1817.3 75.2133 1815.48 75.7509 1813.02 77.4296C1801.92 85.0025 1797.05 99.55 1788.92 109.771C1779.57 121.525 1767.06 129.487 1754.41 137.273L1734.44 124.167C1722.85 117.317 1711.28 110.548 1699.23 104.524C1687.93 98.872 1674.52 93.6545 1664.24 86.3147C1662.58 85.1264 1661.77 83.9525 1661.06 82.0652L1661.98 80.5496C1684.26 77.7159 1734.95 111.683 1754.9 124.907C1773.98 111.352 1788.02 94.8149 1802.39 76.5577C1751.52 74.7619 1700.87 76.8532 1650.03 77.1141C1622.4 77.2559 1594.1 74.7133 1566.6 76.3959C1578.04 81.7188 1591.2 84.4027 1603.38 87.6324C1620.08 92.0618 1636.56 96.8652 1652.54 103.504Q1668.56 110.188 1683.91 118.296Q1699.27 126.404 1713.82 135.869C1727.09 144.4 1740.24 154.218 1754.13 161.629ZM1886.52 1753.06C1904.34 1779.5 1923.42 1807.27 1954.47 1819.05C1959.2 1820.86 1964.79 1823.74 1969.79 1821.4C1971.37 1820.66 1971.2 1819.82 1971.72 1818.3C1970.5 1813.14 1967.71 1809.08 1963.15 1806.31C1957.28 1802.74 1950.92 1799.8 1945.2 1796C1931.79 1787.08 1919.48 1769.28 1910.68 1755.93C1941.52 1710.23 1972.49 1660.5 1972.51 1603.42C1972.51 1595.51 1972.64 1587.23 1971.11 1579.46C1970.63 1577.01 1970.17 1574.83 1968.59 1572.84C1950.12 1642.82 1931.34 1695.27 1886.52 1753.06ZM342.395 1972.13L388.062 1971.94C377.526 1965.6 365.533 1961.02 354.324 1955.92C341.276 1949.99 328.743 1943.48 316.32 1936.34C309.873 1932.64 296.425 1922.73 289.182 1922.66C272.295 1937.04 258.449 1954.62 244.156 1971.5Q293.265 1973.53 342.395 1972.13ZM245.172 77.1688C259.463 93.9216 275.286 110.279 290.973 125.731L310.297 114.104C335.201 99.0229 360.91 86.1385 389.154 78.4831C362.822 75.8144 335.912 75.2411 309.451 75.4978C288.049 75.8741 266.543 75.899 245.172 77.1688ZM220.953 76.0018C233.672 112.132 259.298 144.038 294.181 160.785L295.437 161.378C344.853 126.019 399.761 97.2906 459.267 83.448L480.101 78.6377C458.709 76.1799 435.895 74.4492 414.574 77.9083C374.184 84.461 326.587 116.304 291.759 137.798C278.671 128.268 266.335 118.284 256.627 105.187C249.533 95.6173 243.01 84.1965 234.229 76.116C229.809 76.0535 225.372 75.9043 220.953 76.0018ZM484.015 1971.82C439.321 1956.94 394.996 1943.36 352.777 1922.12C341.081 1916.23 329.739 1909.41 318.715 1902.36C309.976 1896.77 300.836 1889.6 291.109 1885.92C266.419 1902.19 241.868 1927.21 227.574 1952.98C225.249 1957.17 222.097 1962.14 221.323 1966.9C221.025 1968.74 221.447 1969.45 221.977 1971.16C225.081 1972.81 227.844 1973.01 231.268 1972.05C236.647 1970.54 240.697 1963.99 243.527 1959.54C258.185 1936.52 269.244 1927.38 290.702 1910.7C315.292 1927.5 340.899 1940.91 368.25 1952.64C380.608 1958.38 393.244 1965.26 406.395 1968.97C424.754 1974.16 463.879 1972.43 484.015 1971.82ZM1922.48 292.335C1933.44 313.621 1945.59 334.307 1956.63 355.58L1969.86 382.931C1970.66 360.782 1974.09 270.694 1967.61 255.205C1966.61 254.6 1966.04 254.169 1964.87 253.995C1948.19 262.7 1933.53 277.259 1922.48 292.335ZM103.155 1778.37C111.216 1770.11 119.218 1761.59 125.879 1752.14C105.508 1723.91 99.0614 1700.83 83.7244 1671.59C82.3687 1669 81.3825 1667.09 78.8759 1665.45C77.1166 1679.66 79.2894 1695.32 79.3996 1709.73C79.6286 1739.7 78.9806 1769.69 79.1281 1799.66C87.2455 1792.69 95.4975 1785.84 103.155 1778.37ZM162.134 295.438C140.452 262.077 115.798 238.22 78.0915 223.598L78.0244 240.09C102.686 253.05 123.198 268.574 137.705 292.792C95.2147 363.57 70.5347 394.278 80.7459 481.539C82.09 475.073 83.0191 468.064 84.9306 461.773C100.095 400.594 127.427 347.688 162.134 295.438ZM125.885 293.344C113.071 277.963 98.0251 259.227 79.0411 251.405C79.0316 295.539 78.4422 339.777 79.1481 383.9C84.0034 372.592 88.7567 361.227 93.7287 349.971C103.572 330.468 114.449 311.954 125.885 293.344ZM1969.26 1797.88C1970.12 1776.61 1975.11 1678.31 1968.41 1665.77C1955.38 1697.96 1940.55 1727.18 1922.83 1757.02C1929.75 1764.81 1936.7 1772.36 1944.21 1779.59C1952.32 1786.07 1960.44 1792.36 1969.26 1797.88ZM1884.5 296.879C1923.02 348.253 1946.43 399.243 1963.7 461.014Q1965.33 468.565 1967.32 476.03C1973.72 415.177 1966.53 384.218 1934.01 331.695C1926.35 319.327 1916.89 307.096 1910.46 294.131C1920.68 277.974 1933.1 262.468 1949.53 252.253C1955.3 248.667 1963.65 245.138 1968.43 240.33C1970.91 237.838 1970.99 234.255 1970.25 231.002C1969.91 229.528 1969.24 228.371 1968.44 227.112C1967.71 226.787 1966.66 226.181 1965.89 226.063C1931.03 240.573 1903.43 264.011 1884.5 296.879ZM80.3302 1575.64C78.7704 1593.06 76.9052 1610.54 79.0483 1628C84.0952 1669.11 113.864 1718.63 137.1 1752.58C121.966 1774.14 103.797 1797.51 79.006 1808.33L79.0833 1825.2L94.44 1817.87C124.116 1801.51 144.718 1780.85 160.764 1750.88Q156.959 1745.97 153.326 1740.93Q149.694 1735.89 146.239 1730.73Q142.784 1725.57 139.51 1720.29Q136.237 1715.01 133.148 1709.62Q130.06 1704.23 127.161 1698.74Q124.262 1693.24 121.555 1687.65Q118.849 1682.06 116.338 1676.38Q113.828 1670.7 111.516 1664.93C105.854 1651.13 100.451 1636.86 96.2266 1622.56C92.1403 1608.72 89.0474 1594.07 83.8112 1580.62C82.9749 1578.48 82.1643 1577.11 80.3302 1575.64Z"/>
	<path fill="#EECC73" d="M141.214 1848.15C152.637 1847.53 162.786 1847.99 173.236 1853.35C185.58 1859.68 194.129 1870.75 197.918 1884.01Q198.273 1885.28 198.564 1886.56Q198.856 1887.85 199.084 1889.14Q199.312 1890.44 199.475 1891.75Q199.639 1893.06 199.738 1894.37Q199.837 1895.68 199.872 1897Q199.906 1898.32 199.875 1899.63Q199.845 1900.95 199.749 1902.26Q199.654 1903.58 199.494 1904.88Q199.334 1906.19 199.109 1907.49Q198.885 1908.79 198.597 1910.07Q198.309 1911.36 197.958 1912.63Q197.607 1913.9 197.193 1915.15Q196.78 1916.4 196.306 1917.63Q195.832 1918.85 195.297 1920.06Q194.763 1921.26 194.17 1922.44Q193.577 1923.61 192.927 1924.76C184.013 1940.59 170.372 1946.95 153.768 1951.67C140.655 1953.52 127.081 1954.36 114.766 1948.45C105.615 1944.05 98.8675 1936.59 95.6711 1926.92C90.7864 1912.15 94.05 1892.62 101.14 1878.98C109.959 1862.01 123.724 1853.92 141.214 1848.15ZM111.517 1937.87C123.177 1941.65 134.129 1944.38 146.476 1943.72C159.226 1940.47 170.549 1935.54 177.699 1923.79Q178.185 1922.98 178.628 1922.15Q179.072 1921.31 179.471 1920.46Q179.871 1919.6 180.226 1918.73Q180.581 1917.85 180.891 1916.96Q181.2 1916.07 181.463 1915.16Q181.726 1914.25 181.941 1913.33Q182.157 1912.42 182.325 1911.49Q182.493 1910.56 182.612 1909.62Q182.732 1908.68 182.803 1907.74Q182.874 1906.8 182.897 1905.86Q182.919 1904.91 182.893 1903.97Q182.866 1903.02 182.791 1902.08Q182.716 1901.14 182.592 1900.21Q182.469 1899.27 182.297 1898.34Q182.125 1897.41 181.905 1896.49Q181.686 1895.58 181.419 1894.67Q181.146 1893.72 180.825 1892.79Q180.505 1891.86 180.138 1890.95Q179.77 1890.03 179.358 1889.14Q178.945 1888.24 178.487 1887.37Q178.03 1886.5 177.529 1885.65Q177.028 1884.8 176.485 1883.98Q175.941 1883.15 175.357 1882.36Q174.773 1881.57 174.15 1880.8Q173.527 1880.04 172.866 1879.31Q172.205 1878.58 171.508 1877.88Q170.81 1877.19 170.079 1876.52Q169.348 1875.86 168.584 1875.24Q167.82 1874.62 167.026 1874.04Q166.232 1873.45 165.409 1872.91Q164.586 1872.37 163.737 1871.87Q162.888 1871.37 162.015 1870.91C154.784 1867.1 147.409 1865.87 139.399 1865.23C127.912 1867.24 118.637 1871.4 111.618 1881.09C104.226 1891.28 101.438 1905.27 103.448 1917.62C104.666 1925.11 107.518 1931.49 111.517 1937.87Z"/>
	<path fill="#EECC73" d="M1898.8 96.2691C1911.96 95.6189 1925.34 95.0703 1936.96 102.504C1945.3 107.836 1950.36 116.185 1952.27 125.8C1955.6 142.487 1950.76 162.314 1941.36 176.334C1931.9 190.43 1918.56 197.343 1902.33 200.55C1891.15 200.18 1881.09 198.67 1871.24 192.991Q1870.21 192.405 1869.22 191.769Q1868.22 191.132 1867.26 190.447Q1866.29 189.762 1865.36 189.029Q1864.44 188.297 1863.55 187.519Q1862.65 186.741 1861.8 185.919Q1860.95 185.098 1860.14 184.235Q1859.34 183.373 1858.57 182.471Q1857.81 181.569 1857.09 180.63Q1856.37 179.691 1855.7 178.717Q1855.03 177.743 1854.41 176.738Q1853.78 175.732 1853.21 174.696Q1852.64 173.66 1852.12 172.598Q1851.61 171.535 1851.14 170.448Q1850.68 169.36 1850.27 168.251Q1849.86 167.142 1849.5 166.014Q1849.15 164.885 1848.85 163.741Q1848.53 162.486 1848.27 161.217Q1848.01 159.948 1847.81 158.668Q1847.62 157.387 1847.48 156.098Q1847.35 154.81 1847.28 153.516Q1847.22 152.222 1847.21 150.927Q1847.21 149.631 1847.27 148.337Q1847.33 147.043 1847.46 145.754Q1847.58 144.465 1847.77 143.183Q1847.96 141.901 1848.21 140.631Q1848.47 139.36 1848.78 138.104Q1849.1 136.848 1849.48 135.609Q1849.85 134.369 1850.29 133.151Q1850.73 131.932 1851.23 130.737Q1851.73 129.541 1852.29 128.372Q1852.85 127.203 1853.46 126.064Q1854.08 124.924 1854.75 123.816C1864.99 106.719 1880.57 100.757 1898.8 96.2691ZM1904.95 181.884C1918.91 178.111 1930.63 172.476 1938.29 159.453C1944.04 149.677 1946.35 136.973 1943.37 125.93C1941.37 118.493 1936.6 112.397 1929.82 108.735C1922.48 104.775 1914.63 104.245 1906.49 104.314C1893.05 106.709 1881.3 110.16 1872.9 121.884Q1872.29 122.754 1871.72 123.653Q1871.15 124.553 1870.63 125.481Q1870.11 126.409 1869.63 127.362Q1869.16 128.315 1868.74 129.292Q1868.31 130.268 1867.94 131.264Q1867.57 132.261 1867.25 133.275Q1866.93 134.29 1866.66 135.32Q1866.39 136.349 1866.17 137.391Q1865.96 138.433 1865.79 139.485Q1865.63 140.536 1865.52 141.595Q1865.41 142.654 1865.36 143.717Q1865.31 144.779 1865.31 145.843Q1865.31 146.908 1865.36 147.97Q1865.42 149.033 1865.53 150.092Q1865.64 151.15 1865.8 152.202Q1865.96 153.253 1866.18 154.295C1867.96 162.943 1872.81 170.602 1880.21 175.503C1887.5 180.331 1896.31 182.063 1904.95 181.884Z"/>
	<path fill="#EECC73" d="M136.048 95.4038C147.858 93.7413 161.52 97.1275 171.757 103.095C184.624 110.595 194.609 123.52 198.041 138.091C201.153 151.302 199.384 165.519 191.986 177.058C184.388 188.909 171.65 195.539 158.217 198.448C143.036 198.9 130.128 196.9 117.489 187.505C104.215 177.639 96.1114 161.753 93.8842 145.56C92.1905 133.246 93.5381 119.744 101.582 109.763C110.339 98.8962 122.951 96.5114 136.048 95.4038ZM152.731 181.885C164.473 177.514 174.174 172.09 179.582 160.085Q179.98 159.19 180.332 158.276Q180.684 157.362 180.988 156.431Q181.293 155.5 181.55 154.555Q181.807 153.61 182.015 152.653Q182.223 151.696 182.382 150.729Q182.541 149.763 182.651 148.79Q182.76 147.816 182.82 146.839Q182.88 145.861 182.89 144.882Q182.9 143.902 182.859 142.924Q182.819 141.945 182.729 140.97Q182.639 139.994 182.499 139.025Q182.36 138.056 182.171 137.094Q181.982 136.133 181.744 135.183Q181.506 134.233 181.22 133.296Q180.934 132.36 180.6 131.439Q180.267 130.518 179.887 129.615Q179.473 128.643 179.01 127.693Q178.547 126.743 178.037 125.819Q177.526 124.894 176.969 123.996Q176.412 123.098 175.809 122.23Q175.207 121.362 174.561 120.526Q173.916 119.69 173.228 118.888Q172.541 118.086 171.813 117.319Q171.085 116.553 170.32 115.825Q169.554 115.097 168.752 114.409Q167.95 113.721 167.115 113.075Q166.279 112.429 165.411 111.826Q164.543 111.224 163.646 110.666Q162.749 110.108 161.824 109.597Q160.899 109.086 159.95 108.622Q159 108.159 158.029 107.745Q157.057 107.33 156.065 106.966C147.877 103.907 140.287 103.737 131.734 104.216C121.412 106.775 112.206 109.792 106.257 119.397C101.042 127.818 100.855 138.236 103.228 147.614C106.335 159.895 114.17 170.997 125.333 177.193C133.965 181.984 143.083 182.929 152.731 181.885Z"/>
	<path fill="#EECC73" d="M1888.63 1848.17C1903.83 1847.56 1917.99 1850.58 1930.34 1860.11C1943.38 1870.17 1951.58 1885.81 1953.57 1902.07C1955.71 1919.43 1950.14 1933.63 1939.52 1947.11C1932.11 1949.37 1924.92 1950.92 1917.25 1951.98C1904.83 1952.12 1893.47 1951.43 1881.93 1946.44C1868.18 1940.48 1857.15 1929.4 1851.91 1915.29C1847.19 1902.6 1847.49 1888.16 1853.38 1875.89C1860.69 1860.67 1873.58 1853.76 1888.63 1848.17ZM1917.38 1943.3C1927.26 1940.86 1935.73 1937.52 1941.29 1928.33C1946.8 1919.25 1946.57 1907.64 1943.67 1897.73C1940.31 1886.23 1932.85 1876.11 1922.25 1870.32C1913.69 1865.64 1904 1864.3 1894.37 1865.11C1882.51 1870.92 1872.49 1877.85 1868.12 1891.03Q1867.8 1891.98 1867.54 1892.95Q1867.27 1893.92 1867.05 1894.9Q1866.84 1895.88 1866.67 1896.87Q1866.5 1897.86 1866.39 1898.86Q1866.27 1899.86 1866.21 1900.86Q1866.14 1901.86 1866.13 1902.86Q1866.12 1903.87 1866.15 1904.87Q1866.19 1905.88 1866.28 1906.88Q1866.37 1907.88 1866.51 1908.87Q1866.65 1909.86 1866.84 1910.85Q1867.03 1911.84 1867.27 1912.81Q1867.51 1913.79 1867.8 1914.75Q1868.09 1915.71 1868.43 1916.66Q1868.76 1917.6 1869.15 1918.53Q1869.54 1919.45 1869.97 1920.36Q1870.4 1921.27 1870.88 1922.15C1876.18 1931.98 1885.27 1938.79 1895.96 1941.8C1902.94 1943.76 1910.2 1943.95 1917.38 1943.3Z"/>
	<path fill="#EECC73" d="M1724.56 1723.38C1725.89 1723.7 1727.15 1724.09 1728.41 1724.64C1774.06 1744.47 1820.96 1792.12 1838.88 1838.67C1837.42 1838.36 1836.09 1837.95 1834.7 1837.39C1789.4 1819.08 1743.82 1767.46 1724.56 1723.38Z"/>
	<path fill="#EECC73" d="M1834.02 215.96L1835.49 217.611C1835.33 219.051 1835.17 220.389 1834.79 221.789C1832.78 229.198 1826.85 236.779 1822.42 242.927C1796.86 278.422 1763.62 302.527 1726.93 325.092L1725.77 324.253C1725.22 322.356 1725.01 322.315 1725.53 320.214C1727.58 311.786 1734.06 304.238 1739.14 297.449C1765 262.924 1796.85 237.218 1834.02 215.96Z"/>
	<path fill="#EECC73" d="M328.853 1725L329.251 1725.69C328.89 1729.06 325.473 1732.99 323.463 1735.68C306.843 1757.93 231.971 1836.79 205.734 1840.51C218.039 1816.66 239.38 1778.49 258.652 1760.04C262.071 1761.46 265.657 1763.14 269.273 1763.95C279.38 1766.2 304.298 1742.33 312.842 1735.82C317.981 1731.91 323.378 1728.42 328.853 1725Z"/>
</svg>
